<svg width="22" height="34" viewBox="0 0 22 34" fill="none" xmlns="http://www.w3.org/2000/svg">
<path d="M21.0736 0.319408C20.2862 0.111853 19.4888 0.00501744 18.6898 7.313e-06C15.9636 -0.00341277 13.2943 1.19284 11 3.44617C8.69981 1.22243 6.03091 0.055534 3.3102 0.08406C2.51117 0.0890701 1.71381 0.195906 0.926366 0.40346C0.668435 0.471507 0.434857 0.678243 0.267694 0.986439C0.100532 1.29463 0.0107707 1.68403 0.0145757 2.08452V22.2572C0.012223 22.5042 0.0454735 22.7489 0.111961 22.9741C0.178449 23.1992 0.276541 23.3991 0.399256 23.5596C0.521971 23.7201 0.666294 23.8372 0.821956 23.9027C0.977618 23.9681 1.14079 23.9803 1.29987 23.9382C2.8741 23.5211 4.48696 23.5903 6.04345 24.1418C7.59993 24.6932 9.06857 25.7157 10.3628 27.1491L10.4947 27.2667H10.6155C10.7373 27.3444 10.868 27.3844 11 27.3844C11.132 27.3844 11.2627 27.3444 11.3845 27.2667H11.5053L11.6372 27.1491C12.9224 25.6837 14.3868 24.628 15.9436 24.0447C17.5004 23.4614 19.1179 23.3623 20.7001 23.7533C20.8592 23.7953 21.0224 23.7832 21.178 23.7178C21.3337 23.6523 21.478 23.5352 21.6007 23.3747C21.7235 23.2142 21.8216 23.0142 21.888 22.7891C21.9545 22.564 21.9878 22.3193 21.9854 22.0723V1.8996C21.974 1.51658 21.8773 1.15104 21.7115 0.863629C21.5457 0.576214 21.3206 0.38419 21.0736 0.319408ZM9.90146 22.6606C7.86903 21.0244 5.60673 20.1705 3.3102 20.1727C2.94768 20.1727 2.58516 20.1727 2.21166 20.1727V3.36212C2.57754 3.32985 2.94433 3.32985 3.3102 3.36212C5.65382 3.35815 7.94629 4.41058 9.90146 6.38802V22.6606ZM19.7883 20.2399C19.4148 20.2399 19.0523 20.2399 18.6898 20.2399C16.3933 20.2377 14.131 21.0917 12.0985 22.7279V6.38802C14.0537 4.41058 16.3462 3.35815 18.6898 3.36212C19.0557 3.32985 19.4225 3.32985 19.7883 3.36212V20.2399ZM21.0736 27.2163C20.2862 27.0087 19.4888 26.9019 18.6898 26.8969C15.9636 26.8935 13.2943 28.0897 11 30.3431C8.70571 28.0897 6.03638 26.8935 3.3102 26.8969C2.51117 26.9019 1.71381 27.0087 0.926366 27.2163C0.783366 27.251 0.646262 27.3287 0.52294 27.4448C0.399617 27.5609 0.292508 27.7131 0.207773 27.8928C0.123037 28.0724 0.0623463 28.2759 0.0291905 28.4916C-0.00396537 28.7073 -0.00893213 28.9309 0.0145757 29.1495C0.0704022 29.5861 0.23702 29.9709 0.47793 30.2199C0.718841 30.4688 1.0144 30.5614 1.29987 30.4775C2.8741 30.0604 4.48696 30.1297 6.04345 30.6811C7.59993 31.2325 9.06857 32.255 10.3628 33.6884C10.5489 33.8911 10.7716 34 11 34C11.2284 34 11.4511 33.8911 11.6372 33.6884C12.9314 32.255 14.4001 31.2325 15.9566 30.6811C17.513 30.1297 19.1259 30.0604 20.7001 30.4775C20.9856 30.5614 21.2812 30.4688 21.5221 30.2199C21.763 29.9709 21.9296 29.5861 21.9854 29.1495C22.0089 28.9309 22.004 28.7073 21.9708 28.4916C21.9377 28.2759 21.877 28.0724 21.7922 27.8928C21.7075 27.7131 21.6004 27.5609 21.4771 27.4448C21.3537 27.3287 21.2166 27.251 21.0736 27.2163Z" fill="#5F6388"/>
</svg>
